<?xml version="1.0" encoding="UTF-8"?>
<svg version="1.1" xmlns="http://www.w3.org/2000/svg" width="500" height="500">
<path d="M0 0 C25.06139571 -0.61835084 46.98444018 8.34301769 65.15795898 25.32177734 C74.97449262 34.83979834 82.11592623 46.13460875 86.50390625 59.12109375 C87.09171875 60.81685547 87.09171875 60.81685547 87.69140625 62.546875 C94.55366642 85.49255745 91.08539349 109.65852038 80.16796875 130.6953125 C68.26640704 151.63811583 49.04846875 166.30817673 26.0234375 173.15625 C1.59877805 178.88286045 -22.76471337 174.6297127 -44.18359375 161.93359375 C-63.67244195 148.81384202 -77.15809551 129.01115398 -82.49609375 106.12109375 C-86.73119447 82.74219317 -82.474885 59.30580523 -69.99609375 39.12109375 C-55.28107428 18.16757743 -34.02396832 5.22952072 -8.92578125 0.65234375 C-5.95132281 0.26854266 -2.99378471 0.14523838 0 0 Z " fill="#C60302" transform="translate(246.49609375,157.87890625)"/>
<path d="M0 0 C1.4540625 0.0309375 1.4540625 0.0309375 2.9375 0.0625 C4.49863815 3.1847763 4.27436126 6.5650231 4.4375 10 C4.66596375 15.6110196 4.66596375 15.6110196 5.9375 21.0625 C6.5975 20.0725 7.2575 19.0825 7.9375 18.0625 C8.9275 18.0625 9.9175 18.0625 10.9375 18.0625 C10.9375 18.7225 10.9375 19.3825 10.9375 20.0625 C12.2575 20.0625 13.5775 20.0625 14.9375 20.0625 C15.88149942 22.89449825 16.0688568 24.65890969 16.08276367 27.59399414 C16.08914352 28.50826675 16.09552338 29.42253937 16.10209656 30.36451721 C16.10320938 31.34895309 16.1043222 32.33338898 16.10546875 33.34765625 C16.10879715 34.35968613 16.11212555 35.371716 16.11555481 36.41441345 C16.12061777 38.55369614 16.12296333 40.69298672 16.12280273 42.83227539 C16.12499368 46.11552808 16.14316835 49.39844721 16.16210938 52.68164062 C16.16504246 54.75781135 16.16702782 56.83398367 16.16796875 58.91015625 C16.17515427 59.89661636 16.18233978 60.88307648 16.18974304 61.89942932 C16.18666641 62.81054977 16.18358978 63.72167023 16.18041992 64.66040039 C16.18184494 65.46409561 16.18326996 66.26779083 16.18473816 67.09584045 C15.9375 69.0625 15.9375 69.0625 13.9375 71.0625 C11.4375 70.9375 11.4375 70.9375 8.9375 70.0625 C6.72219444 67.0718375 6.43209952 63.68956314 5.9375 60.0625 C5.2775 60.0625 4.6175 60.0625 3.9375 60.0625 C3.94273682 61.02663818 3.94797363 61.99077637 3.95336914 62.98413086 C3.97142118 66.54922564 3.98293274 70.11431636 3.99243164 73.67944336 C3.9974714 75.22469766 4.0043032 76.76994716 4.01293945 78.31518555 C4.02502076 80.53175029 4.03073173 82.74825218 4.03515625 84.96484375 C4.04031754 85.6596434 4.04547882 86.35444305 4.05079651 87.07029724 C4.05099277 88.7347933 3.99939129 90.39915499 3.9375 92.0625 C2.9375 93.0625 2.9375 93.0625 -0.125 93.125 C-1.094375 93.104375 -2.06375 93.08375 -3.0625 93.0625 C-4.69708357 89.79333286 -4.20062606 86.18190711 -4.19189453 82.58959961 C-4.19364685 81.7130925 -4.19539917 80.83658539 -4.19720459 79.93351746 C-4.20161713 77.02727293 -4.19868746 74.12108893 -4.1953125 71.21484375 C-4.19598565 69.20227547 -4.19695577 67.18970728 -4.19821167 65.17713928 C-4.19968778 60.95621976 -4.19753662 56.73532137 -4.19287109 52.5144043 C-4.18717021 47.09113097 -4.19045564 41.66790709 -4.19644356 36.24463558 C-4.20004838 32.08838017 -4.19891101 27.93213657 -4.19631577 23.77588081 C-4.19564647 21.77549801 -4.19647502 19.77511416 -4.19879532 17.77473259 C-4.20132095 14.98512787 -4.19748269 12.19560449 -4.19189453 9.40600586 C-4.19391876 8.57117676 -4.19594299 7.73634766 -4.19802856 6.8762207 C-4.17269029 0.08515694 -4.17269029 0.08515694 0 0 Z " fill="#C31010" transform="translate(223.0625,199.9375)"/>
<path d="M0 0 C3.51324239 3.96656399 4.1333285 8.82685419 4 14 C2.73568515 18.46228772 0.96140741 22.05793827 -2.796875 24.93359375 C-9.73729339 28.29305159 -18.39448877 29.2230011 -26 29 C-27.56997941 26.17658534 -28.30337358 23.91012248 -28.59765625 20.69921875 C-28.67693359 19.88646484 -28.75621094 19.07371094 -28.83789062 18.23632812 C-28.91201172 17.39521484 -28.98613281 16.55410156 -29.0625 15.6875 C-29.21883867 14.02462506 -29.37637186 12.36186194 -29.53515625 10.69921875 C-29.60750488 9.90306152 -29.67985352 9.1069043 -29.75439453 8.28662109 C-29.98129453 6.17415052 -30.3147208 4.11089461 -30.68359375 2.01953125 C-30.78800781 1.02308594 -30.89242187 0.02664063 -31 -1 C-24.46666664 -7.53333336 -6.79147074 -5.43317659 0 0 Z M-19 5 C-19.4857159 10.3654663 -19.06149392 14.97510856 -17 20 C-13.32383397 19.717218 -10.65400123 19.40875077 -7.5 17.4375 C-5.56475252 14.29272285 -5.72206139 12.40076502 -6.3984375 8.83984375 C-6.93003552 6.84216277 -6.93003552 6.84216277 -8.625 5 C-11.57929788 3.7560851 -16.46960843 2.46960843 -19 5 Z " fill="#FDF7F7" transform="translate(280,364)"/>
<path d="M0 0 C3.06247955 1.79754234 4.56734966 3.23771131 6.3125 6.3125 C7.15595373 9.60963733 7.13289884 12.61107957 7 16 C7.56589844 16.18175781 8.13179688 16.36351562 8.71484375 16.55078125 C9.44832031 16.80214844 10.18179688 17.05351562 10.9375 17.3125 C11.66839844 17.55613281 12.39929688 17.79976563 13.15234375 18.05078125 C15 19 15 19 16 22 C13.8910511 23.93795304 12.64261445 25.02719696 10 26 C6.22027367 25.75546074 2.67256451 24.88813651 -1 24 C-1.66 24 -2.32 24 -3 24 C-2.505 24.928125 -2.01 25.85625 -1.5 26.8125 C0 30 0 30 0 33 C-2.31 34.32 -4.62 35.64 -7 37 C-13.32895259 29.24030014 -19.44288686 21.3356697 -25 13 C-18.28897052 5.86953118 -10.47048588 -1.6861021 0 0 Z M-10.3125 10.4375 C-10.869375 10.953125 -11.42625 11.46875 -12 12 C-11.29660434 14.50965614 -11.29660434 14.50965614 -10 17 C-8.12042756 18.1576585 -8.12042756 18.1576585 -6 18 C-4.12640605 16.96040481 -4.12640605 16.96040481 -3 15 C-2.74930087 12.37429296 -2.74930087 12.37429296 -3 10 C-6.79735079 8.82620426 -6.79735079 8.82620426 -10.3125 10.4375 Z " fill="#FDF9F8" transform="translate(337,334)"/>
<path d="M0 0 C4.20632646 0.73539027 6.96285058 1.97448014 10.5625 4.3125 C11.49191406 4.90675781 12.42132813 5.50101562 13.37890625 6.11328125 C19.47746404 10.50315221 19.47746404 10.50315221 20.75 14.1484375 C21.21515926 18.2912622 21.23063076 20.50183755 19.4375 24.375 C17 27 17 27 13.8125 28.25 C10.78433862 29.68279934 10.78433862 29.68279934 10.39453125 32.40234375 C10.15025653 34.92651587 10.065847 37.46489069 10 40 C5.545 38.02 5.545 38.02 1 36 C0.67 32.37 0.34 28.74 0 25 C-3.73639216 26.24546405 -4.18756513 27.63404953 -6 31 C-8.64 29.68 -11.28 28.36 -14 27 C-13.41432842 22.98260956 -12.14706444 20.16648562 -10.05859375 16.69921875 C-9.18364258 15.23452148 -9.18364258 15.23452148 -8.29101562 13.74023438 C-7.67935547 12.73283203 -7.06769531 11.72542969 -6.4375 10.6875 C-5.82197266 9.66076172 -5.20644531 8.63402344 -4.57226562 7.57617188 C-3.05463946 5.04679494 -1.53038935 2.52166788 0 0 Z M5 11 C3.68 13.31 2.36 15.62 1 18 C4.12296038 19.85064319 6.37940768 20.29356154 10 20 C11.29633621 18.93354885 11.29633621 18.93354885 11.0625 16.4375 C11.041875 15.633125 11.02125 14.82875 11 14 C9.02 13.01 7.04 12.02 5 11 Z " fill="#FDF9F8" transform="translate(181,339)"/>
<path d="M0 0 C3.95406217 3.14951354 5.71786589 6.75105322 6.57421875 11.62890625 C6.92068764 16.64847992 5.52188384 20.22718519 2.57421875 24.25390625 C-1.71004303 28.75014973 -5.57093942 30.40433226 -11.73828125 30.56640625 C-16.80117486 30.50629274 -19.60767069 29.79264287 -23.42578125 26.25390625 C-26.55916198 22.35835183 -28.22069335 19.27855988 -28.42578125 14.25390625 C-27.15494592 7.66866864 -24.75774577 4.00287964 -19.42578125 0.00390625 C-13.00238747 -3.74307346 -6.3744832 -4.11118355 0 0 Z M-16.42578125 8.25390625 C-18.76091262 11.15567809 -18.76091262 11.15567809 -18.42578125 14.87890625 C-17.35615265 18.81176566 -17.35615265 18.81176566 -14.42578125 21.25390625 C-11.55940843 22.34282964 -11.55940843 22.34282964 -8.42578125 22.25390625 C-5.33418768 20.46765219 -3.82416505 19.14441122 -2.36328125 15.87890625 C-2.45747854 11.92262002 -3.792257 10.15078292 -6.42578125 7.25390625 C-10.86244306 5.72124126 -12.48893565 5.62934252 -16.42578125 8.25390625 Z " fill="#FDF8F6" transform="translate(189.42578125,125.74609375)"/>
<path d="M0 0 C3.875 1.875 3.875 1.875 5 3 C5.20839236 4.45295785 5.36753581 5.9131631 5.5 7.375 C5.75521162 10.17321314 6.1027017 12.30810511 7 15 C7.05865801 16.59269626 7.06122359 18.18783408 7.02734375 19.78125 C7.01509766 20.70550781 7.00285156 21.62976563 6.99023438 22.58203125 C6.95507678 24.52741824 6.91601381 26.47273857 6.87304688 28.41796875 C6.86208984 29.34222656 6.85113281 30.26648438 6.83984375 31.21875 C6.81458618 32.4862207 6.81458618 32.4862207 6.78881836 33.77929688 C6.85065907 36.28888084 6.85065907 36.28888084 9 39 C9 30.42 9 21.84 9 13 C13.16241029 10.91879486 13.82266189 10.75808867 18 12 C19.73123592 13.73123592 19.13019929 16.07034289 19.1328125 18.42578125 C19.13474609 20.08577148 19.13474609 20.08577148 19.13671875 21.77929688 C19.13285156 22.94525391 19.12898438 24.11121094 19.125 25.3125 C19.13080078 27.0440332 19.13080078 27.0440332 19.13671875 28.81054688 C19.13542969 29.92107422 19.13414062 31.03160156 19.1328125 32.17578125 C19.13168457 33.19583252 19.13055664 34.21588379 19.12939453 35.2668457 C19.01523537 37.67818867 18.6919201 39.69783684 18 42 C16.35 42 14.7 42 13 42 C12.01 44.475 12.01 44.475 11 47 C10.1028125 46.7215625 10.1028125 46.7215625 9.1875 46.4375 C6.83591238 45.77906313 6.83591238 45.77906313 4 47 C3.67 47.99 3.34 48.98 3 50 C1.35 49.67 -0.3 49.34 -2 49 C-2.0505916 42.34313186 -2.0856876 35.68631306 -2.10986328 29.02929688 C-2.11993859 26.76332751 -2.13359918 24.49737119 -2.15087891 22.23144531 C-2.17506011 18.97978499 -2.18646763 15.72829613 -2.1953125 12.4765625 C-2.20563507 11.45881744 -2.21595764 10.44107239 -2.22659302 9.39248657 C-2.22674408 8.45166229 -2.22689514 7.51083801 -2.22705078 6.54150391 C-2.231492 5.71099518 -2.23593323 4.88048645 -2.24050903 4.02481079 C-2 2 -2 2 0 0 Z " fill="#B91212" transform="translate(284,221)"/>
<path d="M0 0 C0.66 2.31 1.32 4.62 2 7 C-2.15851477 9.72902532 -6.33908059 11.34102868 -11 13 C-11 13.99 -11 14.98 -11 16 C-10.32453125 15.69964844 -9.6490625 15.39929688 -8.953125 15.08984375 C-7.61507813 14.51943359 -7.61507813 14.51943359 -6.25 13.9375 C-5.36828125 13.55464844 -4.4865625 13.17179687 -3.578125 12.77734375 C-0.84743691 11.95399992 0.36901347 12.0226008 3 13 C3.33 14.98 3.66 16.96 4 19 C2.3767313 19.6708712 0.75132422 20.33657029 -0.875 21 C-1.77992188 21.37125 -2.68484375 21.7425 -3.6171875 22.125 C-6 23 -6 23 -8 23 C-7.67 24.32 -7.34 25.64 -7 27 C-6.18015625 26.6390625 -5.3603125 26.278125 -4.515625 25.90625 C-3.43796875 25.4421875 -2.3603125 24.978125 -1.25 24.5 C-0.18265625 24.0359375 0.8846875 23.571875 1.984375 23.09375 C5 22 5 22 9 22 C9.495 25.465 9.495 25.465 10 29 C2.69148844 32.06404952 -4.63184879 35.08208171 -12 38 C-14.55082257 34.04470667 -16.32398152 29.94022535 -18 25.5625 C-19.42499021 21.86272074 -20.85337141 18.27001917 -22.75 14.77734375 C-24 12 -24 12 -23.85107422 9.96020508 C-23 8 -23 8 -21.09814453 6.81152344 C-20.28458496 6.49731445 -19.47102539 6.18310547 -18.6328125 5.859375 C-17.74722656 5.51132812 -16.86164063 5.16328125 -15.94921875 4.8046875 C-15.01722656 4.45664062 -14.08523438 4.10859375 -13.125 3.75 C-12.20074219 3.38648438 -11.27648437 3.02296875 -10.32421875 2.6484375 C-3.46416823 0 -3.46416823 0 0 0 Z " fill="#FDF8F7" transform="translate(309,348)"/>
<path d="M0 0 C3.85247583 2.03527025 6.90224752 4.13571911 9 8 C10.19892127 12.53877337 10.30873098 15.9260089 8.2265625 20.2265625 C5.44837668 24.2434299 1.37160715 27.81419642 -3 30 C-7.9509132 30.54317573 -11.89488185 30.52241949 -16.4375 28.375 C-20.08888433 24.99079013 -21.64912403 22.01753685 -22.5 17.125 C-21.46342663 10.64641645 -17.90302812 6.32592374 -12.6875 2.5 C-8.11951648 -0.27721257 -5.28247303 -0.86597918 0 0 Z M-10.51171875 13.3359375 C-12.42836482 15.47895909 -13 17.13003879 -13 20 C-12.67 20.33 -12.34 20.66 -12 21 C-7.6986666 20.8345641 -5.51590243 20.414965 -2.125 17.6875 C0.33216187 14.66041998 0.33216187 14.66041998 1 11 C0.34 10.34 -0.32 9.68 -1 9 C-5.90930614 9 -7.02894308 10.1887612 -10.51171875 13.3359375 Z " fill="#FDF7F7" transform="translate(353,148)"/>
<path d="M0 0 C3.5165686 2.00946777 5.69336274 4.08008821 7 8 C7.75129407 14.93407482 6.93093448 20.19080331 3 26 C0.61149338 28.82278056 -0.48056129 29.82685376 -4 31 C-8.66507623 31.3823833 -11.04127641 31.47936179 -15.25 29.375 C-18.90154341 26.22139433 -21.7722588 23.71467516 -22.1953125 18.671875 C-21.81859274 11.4477196 -19.22007674 5.93595233 -13.875 1.0625 C-9.22401693 -1.57305707 -5.04798333 -1.27274537 0 0 Z M-6 7 C-9.08028948 9.77226053 -10.83016411 12.00306072 -12 16 C-12.16798262 18.70886941 -12.16798262 18.70886941 -12 21 C-10.02 21.99 -10.02 21.99 -8 23 C-4.93085612 20.23777051 -3.05547721 18.03000389 -2 14 C-2.30087716 10.77171763 -2.30087716 10.77171763 -3 8 C-3.99 7.67 -4.98 7.34 -6 7 Z " fill="#FDF8F7" transform="translate(300,110)"/>
<path d="M0 0 C3.23949628 2.07660018 4.29323424 4.31279171 5.4375 7.875 C6.09204966 11.01917605 5.98185032 12.05551667 4.9375 15.25 C1.42293739 20.23841145 -2.16132116 22.37060125 -8 24 C-7.67 26.31 -7.34 28.62 -7 31 C-9.97 31.99 -12.94 32.98 -16 34 C-18.45360839 28.54016872 -20.39147926 23.01985479 -22.1875 17.3125 C-22.46013672 16.47138672 -22.73277344 15.63027344 -23.01367188 14.76367188 C-23.27083984 13.95091797 -23.52800781 13.13816406 -23.79296875 12.30078125 C-24.0252417 11.57028564 -24.25751465 10.83979004 -24.49682617 10.0871582 C-25 8 -25 8 -25 4 C-7.62622215 -2.16076294 -7.62622215 -2.16076294 0 0 Z M-13 9 C-12.67 11.31 -12.34 13.62 -12 16 C-9.28324005 15.63287028 -7.38936287 15.27255401 -5.125 13.6875 C-3.74790905 12.02819169 -3.74790905 12.02819169 -4.3125 9.8125 C-4.539375 9.214375 -4.76625 8.61625 -5 8 C-8.40254489 6.7848054 -9.93251126 7.13759612 -13 9 Z " fill="#FDF7F6" transform="translate(221,108)"/>
<path d="M0 0 C6.06095799 4.00023227 8.99747491 8.98989963 10.75 16 C10.8325 16.66 10.915 17.32 11 18 C7.19495213 19.79682816 6.29399165 20.07349791 2 19 C1.34 16.03 0.68 13.06 0 10 C-1.32 9.67 -2.64 9.34 -4 9 C-3.7834375 9.556875 -3.566875 10.11375 -3.34375 10.6875 C-1.39468476 16.02938252 -0.24212465 20.31593485 -1 26 C-3.0625 29 -3.0625 29 -6 31 C-10.06682392 31.66548028 -12.31109947 31.30930228 -16.0625 29.625 C-21.32432446 24.9229441 -24.93262744 19.01954423 -26 12 C-24.3125 10.4375 -24.3125 10.4375 -22 9 C-19.35546875 9.41015625 -19.35546875 9.41015625 -17 10 C-16.81824219 10.69867188 -16.63648438 11.39734375 -16.44921875 12.1171875 C-16.07216797 13.48230469 -16.07216797 13.48230469 -15.6875 14.875 C-15.32205078 16.23238281 -15.32205078 16.23238281 -14.94921875 17.6171875 C-14.13330148 20.32113319 -14.13330148 20.32113319 -11 22 C-11.34224609 20.80503906 -11.34224609 20.80503906 -11.69140625 19.5859375 C-11.97886719 18.52632813 -12.26632813 17.46671875 -12.5625 16.375 C-12.85253906 15.33085937 -13.14257812 14.28671875 -13.44140625 13.2109375 C-14.04121316 9.76309638 -13.86917902 7.37587211 -13 4 C-9.12845129 -0.77491007 -5.88782879 -1.61626673 0 0 Z " fill="#FDF7F6" transform="translate(146,299)"/>
<path d="M0 0 C3.9561539 2.09004357 6.62403457 4.22439977 9 8 C9.88998288 12.78666466 9.64436628 17.49001616 7.3125 21.8125 C1.81034483 29.39655172 1.81034483 29.39655172 -3 31 C-7.6594918 31.54138857 -11.10553068 31.43067041 -15.375 29.375 C-18.40413901 26.63435042 -19.74921838 24.89949563 -21 21 C-21.25986341 14.9690033 -19.93088505 10.67456601 -16 6 C-10.93575885 1.22070336 -7.11228257 -0.96684661 0 0 Z M-3 8 C-4.87531558 9.12929361 -4.87531558 9.12929361 -6.625 10.8125 C-7.23601562 11.35519531 -7.84703125 11.89789063 -8.4765625 12.45703125 C-10.78398481 14.7940359 -10.99544651 15.7723256 -11.0625 19.125 C-11.041875 20.07375 -11.02125 21.0225 -11 22 C-8.04716131 23.36076902 -8.04716131 23.36076902 -5.5 21.875 C-2.67876497 19.75907372 -1.42294079 18.22033967 0 15 C0.25136033 11.79083829 0.25136033 11.79083829 0 9 C-0.99 8.67 -1.98 8.34 -3 8 Z " fill="#FDF7F6" transform="translate(328,125)"/>
<path d="M0 0 C2.71791921 1.74723378 2.97818355 4.10205223 3.75 7.125 C3.25628906 7.43953125 2.76257813 7.7540625 2.25390625 8.078125 C1.61324219 8.50609375 0.97257812 8.9340625 0.3125 9.375 C-0.32558594 9.79265625 -0.96367187 10.2103125 -1.62109375 10.640625 C-3.54902057 12.39748877 -3.86479436 13.58589803 -4.25 16.125 C-1.48844564 14.50055626 1.113908 12.85400468 3.6875 10.9375 C7.17293176 8.87469345 8.77741706 8.44881567 12.75 9.125 C15.44990662 10.92493774 17.2918865 12.208773 18.75 15.125 C19.60002978 21.07520848 17.92321336 24.35364869 14.53515625 29.03125 C11.85008401 32.18048133 9.38068456 34.10795302 5.75 36.125 C3.6171875 35.93359375 3.6171875 35.93359375 1.75 35.125 C0.5 32.0625 0.5 32.0625 -0.25 29.125 C0.38808594 28.73828125 1.02617187 28.3515625 1.68359375 27.953125 C2.92302734 27.17195313 2.92302734 27.17195313 4.1875 26.375 C5.01121094 25.86453125 5.83492188 25.3540625 6.68359375 24.828125 C8.96744593 22.9457818 9.40514457 22.0092454 9.75 19.125 C8.698125 19.723125 7.64625 20.32125 6.5625 20.9375 C5.92054688 21.29972656 5.27859375 21.66195313 4.6171875 22.03515625 C3.10239849 22.91931134 1.63590784 23.88584343 0.1875 24.875 C-2.9299639 26.47369944 -4.78685899 26.6300414 -8.25 26.125 C-11.63385039 24.16988644 -12.96940105 22.98550343 -14.1875 19.25 C-14.30845428 13.20228606 -11.92402262 8.81958446 -8.25 4.125 C-3.4059633 0.18922018 -3.4059633 0.18922018 0 0 Z " fill="#FDF8F8" transform="translate(354.25,309.875)"/>
<path d="M0 0 C2.10170351 3.15255527 2.53335833 5.10634396 2.45703125 8.8671875 C1.36896158 13.94484597 -2.86715072 17.24476715 -7 20 C-5.88625 20.12375 -4.7725 20.2475 -3.625 20.375 C0 21 0 21 2 23 C1.67 25.31 1.34 27.62 1 30 C-6.92 29.34 -14.84 28.68 -23 28 C-23.33 26.35 -23.66 24.7 -24 23 C-20.48480054 18.51509034 -15.62303162 15.29916901 -11.109375 11.8671875 C-8.7538281 10.09608377 -8.7538281 10.09608377 -8 7 C-11.4830327 6.06143598 -11.4830327 6.06143598 -14.9375 6.6875 C-17 7 -17 7 -20.25 5.0625 C-21.1575 4.381875 -22.065 3.70125 -23 3 C-16.29266881 -4.45259022 -8.52179469 -4.51153836 0 0 Z " fill="#FDF7F6" transform="translate(272,105)"/>
<path d="M0 0 C1.32 0 2.64 0 4 0 C5.60344035 3.20688071 5.12922745 6.69182847 5.11352539 10.21337891 C5.11367142 11.0622316 5.11381744 11.91108429 5.1139679 12.78565979 C5.11326966 15.59931977 5.1054814 18.41291404 5.09765625 21.2265625 C5.09579175 23.17426518 5.094368 25.12196832 5.09336853 27.06967163 C5.08954583 32.20220224 5.07971765 37.33470467 5.06866455 42.46722412 C5.05844512 47.70210387 5.05386977 52.93698816 5.04882812 58.171875 C5.03809517 68.44792907 5.0210217 78.72396219 5 89 C3.02 89.99 3.02 89.99 1 91 C-1.57934406 88.42065594 -1.24007236 86.69259375 -1.25994873 83.17767334 C-1.25151947 81.95651825 -1.25151947 81.95651825 -1.24291992 80.71069336 C-1.24481827 79.85369339 -1.24671661 78.99669342 -1.24867249 78.11372375 C-1.25238647 75.27233827 -1.24166805 72.43120664 -1.23046875 69.58984375 C-1.22927729 67.6221164 -1.22882372 65.65438847 -1.2290802 63.68666077 C-1.22751431 59.55986987 -1.21921596 55.43316559 -1.20581055 51.30639648 C-1.18880943 46.00418485 -1.18499646 40.70206842 -1.18575573 35.39983273 C-1.18548443 31.33621809 -1.18000995 27.27262447 -1.17275429 23.2090168 C-1.16956185 21.25329307 -1.16759888 19.29756694 -1.16686058 17.34184074 C-1.16470372 14.61448952 -1.15597407 11.88724136 -1.14526367 9.15991211 C-1.14571686 8.34378448 -1.14617004 7.52765686 -1.14663696 6.6867981 C-1.11447441 1.11447441 -1.11447441 1.11447441 0 0 Z " fill="#FDECEB" transform="translate(221,201)"/>
<path d="M0 0 C2.20887757 0.11498267 4.41710787 0.24243505 6.625 0.375 C8.46964844 0.47941406 8.46964844 0.47941406 10.3515625 0.5859375 C13.88100331 0.98649502 16.75203433 1.56621335 20 3 C21.33178928 6.99536784 20.21203905 8.99697307 19 13 C18.28388529 16.85206759 17.62131239 20.70960345 16.9765625 24.57421875 C15.92593206 28.25983033 15.01333269 29.69931769 12 32 C6.15737051 33.71842044 1.34912226 32.6478689 -4 30 C-6.0625 27.8125 -6.0625 27.8125 -7 26 C-5.35 24.35 -3.7 22.7 -2 21 C-1.443125 21.309375 -0.88625 21.61875 -0.3125 21.9375 C2.12540433 23.05761821 4.36224186 23.56037364 7 24 C7.06058594 23.33613281 7.12117187 22.67226563 7.18359375 21.98828125 C8.01581722 13.21792619 8.01581722 13.21792619 9 9 C5.7 8.67 2.4 8.34 -1 8 C-1.125 2.25 -1.125 2.25 0 0 Z " fill="#FDF7F6" transform="translate(225,358)"/>
<path d="M0 0 C3.36335594 1.45745424 5.54534005 3.31117854 8.109375 5.9140625 C8.86347656 6.67460937 9.61757812 7.43515625 10.39453125 8.21875 C11.17183594 9.0128125 11.94914062 9.806875 12.75 10.625 C13.54277344 11.42679687 14.33554688 12.22859375 15.15234375 13.0546875 C17.10614493 15.03202846 19.05512103 17.01388909 21 19 C19.35 20.65 17.7 22.3 16 24 C13.94870759 22.97435379 11.90202112 21.94812883 9.875 20.875 C8.04279198 19.85903818 8.04279198 19.85903818 6 20 C5.78601563 20.54140625 5.57203125 21.0828125 5.3515625 21.640625 C3.51922057 24.8392797 1.00203394 27.20964484 -1.625 29.75 C-2.140625 30.25660156 -2.65625 30.76320313 -3.1875 31.28515625 C-4.45383339 32.52803902 -5.7263144 33.76465276 -7 35 C-9.31 33.35 -11.62 31.7 -14 30 C-13.02392239 26.09568954 -12.73615399 25.36519805 -10.05859375 22.765625 C-9.47529297 22.19199219 -8.89199219 21.61835938 -8.29101562 21.02734375 C-7.67935547 20.44082031 -7.06769531 19.85429687 -6.4375 19.25 C-5.51420898 18.34701172 -5.51420898 18.34701172 -4.57226562 17.42578125 C-3.05485187 15.94365619 -1.52829404 14.4709033 0 13 C-1.15173355 10.53199953 -2.04783565 8.95216435 -4 7 C-3.68134222 3.70720291 -2.45484649 2.13464912 0 0 Z " fill="#FDF7F6" transform="translate(159,318)"/>
<path d="M0 0 C3.36748512 1.51947499 4.60840337 2.52100842 6 6 C4.68 7.65 3.36 9.3 2 11 C5.43153914 14.53191322 8.97375062 17.7137505 12.8125 20.8125 C13.78832031 21.60269531 14.76414063 22.39289063 15.76953125 23.20703125 C16.50558594 23.79871094 17.24164063 24.39039063 18 25 C17.27633685 28.34430737 16.18284504 30.34262343 14 33 C9.91569858 32.4439214 7.6814505 30.27049917 4.625 27.625 C0.91823284 24.41942953 -2.53591147 22.04110242 -7 20 C-7.2475 20.61875 -7.495 21.2375 -7.75 21.875 C-9.20628639 24.35068687 -10.37812506 24.95125002 -13 26 C-14.32 24.68 -15.64 23.36 -17 22 C-15.42458807 18.42180376 -13.24313686 15.68520027 -10.75 12.6875 C-9.55310547 11.24503906 -9.55310547 11.24503906 -8.33203125 9.7734375 C-5.5763172 6.49612263 -2.80435374 3.23579278 0 0 Z " fill="#FDF8F7" transform="translate(149,144)"/>
<path d="M0 0 C3.53571429 0.53571429 3.53571429 0.53571429 5 2 C5.09304018 3.47354348 5.11746265 4.95150591 5.11352539 6.42797852 C5.11341209 7.83932823 5.11341209 7.83932823 5.11329651 9.27919006 C5.10813522 10.30209641 5.10297394 11.32500275 5.09765625 12.37890625 C5.0962413 13.42070541 5.09482635 14.46250458 5.09336853 15.53587341 C5.0877508 18.87811094 5.0751953 22.22028257 5.0625 25.5625 C5.05748728 27.82226466 5.05292398 30.08203037 5.04882812 32.34179688 C5.03777561 37.89455391 5.02102024 43.44727225 5 49 C2.625 49.625 2.625 49.625 0 50 C-2.44128669 47.55871331 -2.252187 46.92919186 -2.25878906 43.58203125 C-2.26509338 42.66768311 -2.27139771 41.75333496 -2.27789307 40.8112793 C-2.2738446 39.82168213 -2.26979614 38.83208496 -2.265625 37.8125 C-2.26753845 36.79905518 -2.2694519 35.78561035 -2.27142334 34.74145508 C-2.27278591 32.59618888 -2.26908447 30.45091447 -2.26074219 28.30566406 C-2.25004382 25.01348428 -2.26063519 21.72185022 -2.2734375 18.4296875 C-2.27211592 16.34895712 -2.26955355 14.26822709 -2.265625 12.1875 C-2.26967346 11.19790283 -2.27372192 10.20830566 -2.27789307 9.1887207 C-2.27158875 8.27437256 -2.26528442 7.36002441 -2.25878906 6.41796875 C-2.25719788 5.61125732 -2.25560669 4.8045459 -2.25396729 3.97338867 C-2 2 -2 2 0 0 Z " fill="#FEF7F7" transform="translate(258,221)"/>
<path d="M0 0 C3.53571429 0.53571429 3.53571429 0.53571429 5 2 C5.10331927 3.43190861 5.13849886 4.86882803 5.14526367 6.30444336 C5.15483345 7.67607887 5.15483345 7.67607887 5.16459656 9.07542419 C5.16570938 10.07018265 5.1668222 11.0649411 5.16796875 12.08984375 C5.17129715 13.10470352 5.17462555 14.11956329 5.17805481 15.16517639 C5.1831285 17.3164118 5.185463 19.4676551 5.18530273 21.61889648 C5.18748834 24.91989036 5.20563707 28.22054975 5.22460938 31.52148438 C5.22754331 33.60676968 5.2295281 35.69205659 5.23046875 37.77734375 C5.23765427 38.77007797 5.24483978 39.76281219 5.25224304 40.78562927 C5.24916641 41.70320511 5.24608978 42.62078094 5.24291992 43.56616211 C5.24434494 44.37588974 5.24576996 45.18561737 5.24723816 46.0198822 C5 48 5 48 3 50 C0.375 49.625 0.375 49.625 -2 49 C-2.0505916 42.34313186 -2.0856876 35.68631306 -2.10986328 29.02929688 C-2.11993859 26.76332751 -2.13359918 24.49737119 -2.15087891 22.23144531 C-2.17506011 18.97978499 -2.18646763 15.72829613 -2.1953125 12.4765625 C-2.20563507 11.45881744 -2.21595764 10.44107239 -2.22659302 9.39248657 C-2.22674408 8.45166229 -2.22689514 7.51083801 -2.22705078 6.54150391 C-2.231492 5.71099518 -2.23593323 4.88048645 -2.24050903 4.02481079 C-2 2 -2 2 0 0 Z " fill="#FEFCFB" transform="translate(234,221)"/>
<path d="M0 0 C7.41176471 0.70588235 7.41176471 0.70588235 10 2 C8.25184112 8.96196607 6.16274088 15.80318253 3.9375 22.625 C3.6801709 23.43114746 3.4228418 24.23729492 3.15771484 25.06787109 C2.49694845 27.06554687 1.75491229 29.03596635 1 31 C-1 32 -1 32 -2.9453125 31.44140625 C-3.66460937 31.15136719 -4.38390625 30.86132812 -5.125 30.5625 C-6.21167969 30.13130859 -6.21167969 30.13130859 -7.3203125 29.69140625 C-7.87460938 29.46324219 -8.42890625 29.23507812 -9 29 C-7.21127496 22.26683175 -5.31996486 15.56446834 -3.375 8.875 C-3.15690674 8.11646729 -2.93881348 7.35793457 -2.71411133 6.57641602 C-1.11640876 1.11640876 -1.11640876 1.11640876 0 0 Z " fill="#FDF6F5" transform="translate(210,354)"/>
<path d="M0 0 C3.69230769 0.69230769 3.69230769 0.69230769 5 2 C5.09813311 3.4321043 5.12798274 4.86898147 5.12939453 6.30444336 C5.13254669 7.21886703 5.13569885 8.13329071 5.13894653 9.07542419 C5.1369223 10.07018265 5.13489807 11.0649411 5.1328125 12.08984375 C5.13376923 13.10470352 5.13472595 14.11956329 5.13571167 15.16517639 C5.13639368 17.31641705 5.13453798 19.46765975 5.13037109 21.61889648 C5.12502864 24.91980602 5.13031257 28.22057914 5.13671875 31.52148438 C5.13605786 33.60677114 5.13477648 35.69205781 5.1328125 37.77734375 C5.13483673 38.77007797 5.13686096 39.76281219 5.13894653 40.78562927 C5.13579437 41.70320511 5.13264221 42.62078094 5.12939453 43.56616211 C5.12820114 44.78075356 5.12820114 44.78075356 5.12698364 46.0198822 C5 48 5 48 4 50 C2.35 49.67 0.7 49.34 -1 49 C-1.0252689 42.18238106 -1.04283244 35.36477411 -1.05493164 28.54711914 C-1.05997333 26.22582549 -1.06680651 23.90453503 -1.07543945 21.58325195 C-1.08751225 18.25471205 -1.09322979 14.92621398 -1.09765625 11.59765625 C-1.10281754 10.55287613 -1.10797882 9.50809601 -1.11329651 8.43165588 C-1.11337204 7.47073532 -1.11344757 6.50981476 -1.11352539 5.51977539 C-1.115746 4.66928116 -1.11796661 3.81878693 -1.12025452 2.94252014 C-1 1 -1 1 0 0 Z " fill="#FEE8E8" transform="translate(208,221)"/>
<path d="M0 0 C1.32 0.66 2.64 1.32 4 2 C4 17.51 4 33.02 4 49 C1.525 49.495 1.525 49.495 -1 50 C-2.58358604 48.41641396 -2.13513663 46.8000964 -2.14526367 44.60375977 C-2.15164352 43.66931534 -2.15802338 42.73487091 -2.16459656 41.77210999 C-2.16570938 40.75547775 -2.1668222 39.73884552 -2.16796875 38.69140625 C-2.17296135 37.13582253 -2.17296135 37.13582253 -2.17805481 35.54881287 C-2.1831286 33.35049891 -2.185463 31.15217723 -2.18530273 28.95385742 C-2.18748838 25.58043799 -2.20563714 22.20734583 -2.22460938 18.83398438 C-2.2275433 16.70312612 -2.2295281 14.57226631 -2.23046875 12.44140625 C-2.23765427 11.42679825 -2.24483978 10.41219025 -2.25224304 9.36683655 C-2.24916641 8.42923996 -2.24608978 7.49164337 -2.24291992 6.52563477 C-2.24434494 5.69814224 -2.24576996 4.87064972 -2.24723816 4.01808167 C-2 2 -2 2 0 0 Z " fill="#FEFAFA" transform="translate(284,221)"/>
<path d="M0 0 C1.98 0 3.96 0 6 0 C5.360625 0.309375 4.72125 0.61875 4.0625 0.9375 C2.06389179 1.8345163 2.06389179 1.8345163 1 3 C0.87767356 4.47250645 0.8222544 5.95065711 0.79467773 7.42797852 C0.77473251 8.36887833 0.75478729 9.30977814 0.73423767 10.27919006 C0.70916893 11.81354958 0.70916893 11.81354958 0.68359375 13.37890625 C0.66281265 14.42070541 0.64203156 15.46250458 0.62062073 16.53587341 C0.55500943 19.87801247 0.49618669 23.22023285 0.4375 26.5625 C0.39432578 28.82227418 0.35071186 31.08204001 0.30664062 33.34179688 C0.19931633 38.89444421 0.09757188 44.44717321 0 50 C-0.33 50 -0.66 50 -1 50 C-1 47.36 -1 44.72 -1 42 C-1.66 42 -2.32 42 -3 42 C-3.33 42.66 -3.66 43.32 -4 44 C-4 43.34 -4 42.68 -4 42 C-6.31 41.67 -8.62 41.34 -11 41 C-10.34805664 40.61932373 -9.69611328 40.23864746 -9.02441406 39.84643555 C-6.76207242 38.15934916 -6.76207242 38.15934916 -6.54589844 35.45629883 C-6.5668457 34.46654053 -6.58779297 33.47678223 -6.609375 32.45703125 C-6.62226563 31.38388672 -6.63515625 30.31074219 -6.6484375 29.20507812 C-6.69871094 27.52575195 -6.69871094 27.52575195 -6.75 25.8125 C-6.77707031 24.11577148 -6.77707031 24.11577148 -6.8046875 22.38476562 C-6.85187348 19.58899624 -6.91769405 16.79492028 -7 14 C-8.98 14 -10.96 14 -13 14 C-12.67 13.01 -12.34 12.02 -12 11 C-9.125 10.8125 -9.125 10.8125 -6 11 C-5.01 12.485 -5.01 12.485 -4 14 C-1.97826068 10.96739103 -1.70661562 9.91309963 -1.4375 6.4375 C-1.09589041 2.19178082 -1.09589041 2.19178082 0 0 Z " fill="#BA0A0A" transform="translate(282,220)"/>
<path d="M0 0 C1.4540625 0.0309375 1.4540625 0.0309375 2.9375 0.0625 C4.57208357 3.33166714 4.07562606 6.94309289 4.06689453 10.53540039 C4.06864685 11.4119075 4.07039917 12.28841461 4.07220459 13.19148254 C4.07661713 16.09772707 4.07368746 19.00391107 4.0703125 21.91015625 C4.07098565 23.92272453 4.07195577 25.93529272 4.07321167 27.94786072 C4.07468778 32.16878024 4.07253662 36.38967863 4.06787109 40.6105957 C4.06217021 46.03386903 4.06545564 51.45709291 4.07144356 56.88036442 C4.07504838 61.03661983 4.07391101 65.19286343 4.07131577 69.34911919 C4.07064647 71.34950199 4.07147502 73.34988584 4.07379532 75.35026741 C4.07632095 78.13987213 4.07248269 80.92939551 4.06689453 83.71899414 C4.06891876 84.55382324 4.07094299 85.38865234 4.07302856 86.2487793 C4.05176321 91.94823679 4.05176321 91.94823679 2.9375 93.0625 C0.93791636 93.10330783 -1.06295254 93.10504356 -3.0625 93.0625 C-4.69708357 89.79333286 -4.20062606 86.18190711 -4.19189453 82.58959961 C-4.19364685 81.7130925 -4.19539917 80.83658539 -4.19720459 79.93351746 C-4.20161713 77.02727293 -4.19868746 74.12108893 -4.1953125 71.21484375 C-4.19598565 69.20227547 -4.19695577 67.18970728 -4.19821167 65.17713928 C-4.19968778 60.95621976 -4.19753662 56.73532137 -4.19287109 52.5144043 C-4.18717021 47.09113097 -4.19045564 41.66790709 -4.19644356 36.24463558 C-4.20004838 32.08838017 -4.19891101 27.93213657 -4.19631577 23.77588081 C-4.19564647 21.77549801 -4.19647502 19.77511416 -4.19879532 17.77473259 C-4.20132095 14.98512787 -4.19748269 12.19560449 -4.19189453 9.40600586 C-4.19391876 8.57117676 -4.19594299 7.73634766 -4.19802856 6.8762207 C-4.17269029 0.08515694 -4.17269029 0.08515694 0 0 Z M-2.0625 1.0625 C-3.87365624 2.87365624 -3.18245376 5.36127501 -3.18692017 7.77151489 C-3.18332489 8.59078461 -3.17972961 9.41005432 -3.17602539 10.25415039 C-3.17617142 11.11261063 -3.17631744 11.97107086 -3.1764679 12.85554504 C-3.17576847 15.70710738 -3.1679747 18.55860525 -3.16015625 21.41015625 C-3.15829218 23.38170842 -3.15686822 25.35326105 -3.15586853 27.32481384 C-3.15204251 32.52476267 -3.14221152 37.72468375 -3.13116455 42.92462158 C-3.12095222 48.22643661 -3.11637129 53.5282561 -3.11132812 58.83007812 C-3.10058933 69.24089763 -3.08351191 79.65169651 -3.0625 90.0625 C-1.7425 90.7225 -0.4225 91.3825 0.9375 92.0625 C3.50288184 89.49711816 3.17740807 87.81160936 3.19744873 84.31474304 C3.19182922 83.51156143 3.18620972 82.70837982 3.18041992 81.88085938 C3.18231827 81.03521927 3.18421661 80.18957916 3.18617249 79.3183136 C3.18988673 76.51419903 3.17916683 73.71034167 3.16796875 70.90625 C3.16677719 68.96333853 3.16632374 67.02042647 3.1665802 65.07751465 C3.16501421 61.00199792 3.15671576 56.92656889 3.14331055 52.85107422 C3.12632056 47.618463 3.12249615 42.38594825 3.12325573 37.15331268 C3.12298421 33.14026971 3.11750598 29.12724796 3.11025429 25.11421204 C3.10706481 23.18443462 3.10509956 21.25465479 3.10436058 19.32487488 C3.10219998 16.63125484 3.09346178 13.9377385 3.08276367 11.24414062 C3.08321686 10.44095901 3.08367004 9.6377774 3.08413696 8.81025696 C3.15025265 4.806203 3.15025265 4.806203 1.9375 1.0625 C0.6175 1.0625 -0.7025 1.0625 -2.0625 1.0625 Z " fill="#BF3333" transform="translate(223.0625,199.9375)"/>
<path d="M0 0 C2.5 0.125 2.5 0.125 3.5 1.125 C3.75256877 5.09775815 3.68522451 9.08266175 3.6875 13.0625 C3.69974609 14.18591797 3.71199219 15.30933594 3.72460938 16.46679688 C3.72750977 18.07458008 3.72750977 18.07458008 3.73046875 19.71484375 C3.73457764 20.70347412 3.73868652 21.69210449 3.74291992 22.71069336 C3.5 25.125 3.5 25.125 1.5 27.125 C-2.03571429 26.58928571 -2.03571429 26.58928571 -3.5 25.125 C-3.59946453 23.35640807 -3.63080217 21.58388549 -3.6328125 19.8125 C-3.63410156 18.73742187 -3.63539063 17.66234375 -3.63671875 16.5546875 C-3.63091797 14.85699219 -3.63091797 14.85699219 -3.625 13.125 C-3.62886719 11.99320313 -3.63273437 10.86140625 -3.63671875 9.6953125 C-3.63542969 8.62023437 -3.63414062 7.54515625 -3.6328125 6.4375 C-3.63168457 5.44363281 -3.63055664 4.44976562 -3.62939453 3.42578125 C-3.4479083 0.19875054 -3.24126995 0.1620635 0 0 Z " fill="#FDFAF9" transform="translate(272.5,232.875)"/>
<path d="M0 0 C1.32 0.33 2.64 0.66 4 1 C4 9.25 4 17.5 4 26 C2.02 26.99 2.02 26.99 0 28 C-2.60868369 25.39131631 -2.25728913 24.25467636 -2.265625 20.625 C-2.26820313 19.55765625 -2.27078125 18.4903125 -2.2734375 17.390625 C-2.26183594 15.71226562 -2.26183594 15.71226562 -2.25 14 C-2.25773437 12.88109375 -2.26546875 11.7621875 -2.2734375 10.609375 C-2.27085937 9.54203125 -2.26828125 8.4746875 -2.265625 7.375 C-2.26336914 6.39273438 -2.26111328 5.41046875 -2.25878906 4.3984375 C-2 2 -2 2 0 0 Z " fill="#FFE6E5" transform="translate(297,232)"/>
<path d="M0 0 C1.67542976 0.28604898 3.34385343 0.61781233 5 1 C5.05785647 4.95827235 5.09354717 8.9164367 5.125 12.875 C5.14175781 14.00292969 5.15851563 15.13085938 5.17578125 16.29296875 C5.18222656 17.36933594 5.18867188 18.44570312 5.1953125 19.5546875 C5.20578613 20.54968262 5.21625977 21.54467773 5.22705078 22.56982422 C5 25 5 25 3 27 C0.875 26.625 0.875 26.625 -1 26 C-1.02886751 21.85418113 -1.04675327 17.70838784 -1.0625 13.5625 C-1.07087891 12.37849609 -1.07925781 11.19449219 -1.08789062 9.97460938 C-1.09111328 8.84990234 -1.09433594 7.72519531 -1.09765625 6.56640625 C-1.10289307 5.52427979 -1.10812988 4.48215332 -1.11352539 3.40844727 C-1 1 -1 1 0 0 Z " fill="#FEF9FA" transform="translate(246,233)"/>
<path d="M0 0 C1.32 0.33 2.64 0.66 4 1 C4 13.87 4 26.74 4 40 C4.66 40.33 5.32 40.66 6 41 C5.34 43.64 4.68 46.28 4 49 C3.34 49 2.68 49 2 49 C1.98969254 48.41562164 1.97938507 47.83124329 1.96876526 47.22915649 C1.86082159 41.16241997 1.74621394 35.09583564 1.62768555 29.02929688 C1.5842977 26.76337866 1.54262551 24.49742693 1.50268555 22.23144531 C1.44507615 18.97971482 1.38135498 15.72815364 1.31640625 12.4765625 C1.29969376 11.45881744 1.28298126 10.44107239 1.26576233 9.39248657 C1.24581711 8.45166229 1.22587189 7.51083801 1.20532227 6.54150391 C1.18977798 5.71099518 1.1742337 4.88048645 1.15821838 4.02481079 C1.12234803 1.93121564 1.12234803 1.93121564 0 0 Z M7 13 C7.33 13 7.66 13 8 13 C8.16768422 16.93745736 8.3339732 20.87497243 8.5 24.8125 C8.54769531 25.93205078 8.59539062 27.05160156 8.64453125 28.20507812 C8.68964844 29.27822266 8.73476563 30.35136719 8.78125 31.45703125 C8.82314453 32.44678955 8.86503906 33.43654785 8.90820312 34.45629883 C8.97485575 36.30325026 9 38.15184629 9 40 C8.01 39.67 7.02 39.34 6 39 C6.33 30.42 6.66 21.84 7 13 Z " fill="#A61112" transform="translate(261,221)"/>
<path d="M0 0 C3.53571429 0.53571429 3.53571429 0.53571429 5 2 C5.10331927 3.43190861 5.13849886 4.86882803 5.14526367 6.30444336 C5.15483345 7.67607887 5.15483345 7.67607887 5.16459656 9.07542419 C5.16570938 10.07018265 5.1668222 11.0649411 5.16796875 12.08984375 C5.17129715 13.10470352 5.17462555 14.11956329 5.17805481 15.16517639 C5.1831285 17.3164118 5.185463 19.4676551 5.18530273 21.61889648 C5.18748834 24.91989036 5.20563707 28.22054975 5.22460938 31.52148438 C5.22754331 33.60676968 5.2295281 35.69205659 5.23046875 37.77734375 C5.23765427 38.77007797 5.24483978 39.76281219 5.25224304 40.78562927 C5.24916641 41.70320511 5.24608978 42.62078094 5.24291992 43.56616211 C5.24434494 44.37588974 5.24576996 45.18561737 5.24723816 46.0198822 C5 48 5 48 3 50 C0.375 49.625 0.375 49.625 -2 49 C-2.0505916 42.34313186 -2.0856876 35.68631306 -2.10986328 29.02929688 C-2.11993859 26.76332751 -2.13359918 24.49737119 -2.15087891 22.23144531 C-2.17506011 18.97978499 -2.18646763 15.72829613 -2.1953125 12.4765625 C-2.20563507 11.45881744 -2.21595764 10.44107239 -2.22659302 9.39248657 C-2.22674408 8.45166229 -2.22689514 7.51083801 -2.22705078 6.54150391 C-2.231492 5.71099518 -2.23593323 4.88048645 -2.24050903 4.02481079 C-2 2 -2 2 0 0 Z M-1 2 C-1 16.85 -1 31.7 -1 47 C-0.34 47.33 0.32 47.66 1 48 C1.99 47.34 2.98 46.68 4 46 C4.43610159 44.06827828 4.43610159 44.06827828 4.34057617 41.82568359 C4.34023628 40.53457169 4.34023628 40.53457169 4.33988953 39.21737671 C4.32440567 38.28712677 4.30892181 37.35687683 4.29296875 36.3984375 C4.28872391 35.44683746 4.28447906 34.49523743 4.28010559 33.51480103 C4.26327896 30.46791586 4.22561954 27.42168609 4.1875 24.375 C4.17245831 22.31250954 4.15876901 20.25000873 4.14648438 18.1875 C4.11336239 13.1247465 4.06155284 8.06248446 4 3 C2.35 2.67 0.7 2.34 -1 2 Z " fill="#FECACA" transform="translate(234,221)"/>
<path d="M0 0 C2.0625 0.25 2.0625 0.25 4 1 C5.4241906 3.84838121 5.16995508 6.32787908 5.1875 9.5 C5.20167969 10.6653125 5.21585937 11.830625 5.23046875 13.03125 C5 16 5 16 3 18 C-0.53571429 17.46428571 -0.53571429 17.46428571 -2 16 C-2.12557162 13.69006618 -2.17575729 11.37581464 -2.1875 9.0625 C-2.20167969 7.79535156 -2.21585937 6.52820313 -2.23046875 5.22265625 C-2 2 -2 2 0 0 Z " fill="#F8D7D7" transform="translate(308,237)"/>
<path d="M0 0 C1.9375 1.6875 1.9375 1.6875 3 4 C2.75925978 7.37036311 2.41201979 8.58798021 0 11 C-4.05261287 11.34490322 -5.54754176 11.30163882 -9 9 C-9.375 5.5 -9.375 5.5 -9 2 C-5.52957297 -0.31361802 -4.08165827 -0.51020728 0 0 Z " fill="#FDF4F2" transform="translate(130,235)"/>
<path d="M0 0 C1.8125 1.1875 1.8125 1.1875 3 3 C3.42822025 5.85480169 3.40659584 7.34492892 1.875 9.8125 C-0.87155972 11.55198782 -2.81846974 11.39769128 -6 11 C-7.9375 9.875 -7.9375 9.875 -9 8 C-8.875 4.9375 -8.875 4.9375 -8 2 C-4.76746204 -0.15502531 -3.74849077 -0.46856135 0 0 Z " fill="#FDF7F7" transform="translate(376,235)"/>
<path d="M0 0 C1.32 0.33 2.64 0.66 4 1 C4 6.28 4 11.56 4 17 C2.68 17.33 1.36 17.66 0 18 C-2 16 -2 16 -2.265625 12.8125 C-2.26046875 11.554375 -2.2553125 10.29625 -2.25 9 C-2.25515625 7.741875 -2.2603125 6.48375 -2.265625 5.1875 C-2 2 -2 2 0 0 Z " fill="#FDE5E3" transform="translate(197,237)"/>
<path d="M0 0 C0.66 0.33 1.32 0.66 2 1 C1.67657623 1.5692218 1.35315247 2.1384436 1.01992798 2.72491455 C-0.0699727 5.15608345 -0.27215152 6.75525285 -0.31884766 9.40136719 C-0.33871735 10.2619574 -0.35858704 11.12254761 -0.37905884 12.00921631 C-0.39061005 12.92914368 -0.40216125 13.84907104 -0.4140625 14.796875 C-0.43342865 15.74564514 -0.4527948 16.69441528 -0.4727478 17.67193604 C-0.53245659 20.69786633 -0.57889433 23.72383484 -0.625 26.75 C-0.66318777 28.80340187 -0.70223997 30.85678786 -0.7421875 32.91015625 C-0.83815108 37.93997496 -0.92221446 42.96986865 -1 48 C0.32 48 1.64 48 3 48 C3.33 47.01 3.66 46.02 4 45 C3.505 47.475 3.505 47.475 3 50 C1.35 49.67 -0.3 49.34 -2 49 C-2.0505916 42.34313186 -2.0856876 35.68631306 -2.10986328 29.02929688 C-2.11993859 26.76332751 -2.13359918 24.49737119 -2.15087891 22.23144531 C-2.17506011 18.97978499 -2.18646763 15.72829613 -2.1953125 12.4765625 C-2.20563507 11.45881744 -2.21595764 10.44107239 -2.22659302 9.39248657 C-2.22674408 8.45166229 -2.22689514 7.51083801 -2.22705078 6.54150391 C-2.231492 5.71099518 -2.23593323 4.88048645 -2.24050903 4.02481079 C-2 2 -2 2 0 0 Z " fill="#FEDAD8" transform="translate(284,221)"/>
<path d="M0 0 C3.69230769 0.69230769 3.69230769 0.69230769 5 2 C5.09304018 3.47354348 5.11746265 4.95150591 5.11352539 6.42797852 C5.11341209 7.83932823 5.11341209 7.83932823 5.11329651 9.27919006 C5.10813522 10.30209641 5.10297394 11.32500275 5.09765625 12.37890625 C5.0962413 13.42070541 5.09482635 14.46250458 5.09336853 15.53587341 C5.0877508 18.87811094 5.0751953 22.22028257 5.0625 25.5625 C5.05748728 27.82226466 5.05292398 30.08203037 5.04882812 32.34179688 C5.03777561 37.89455391 5.02102024 43.44727225 5 49 C2.525 49.495 2.525 49.495 0 50 C-0.33 49.34 -0.66 48.68 -1 48 C0.98 47.505 0.98 47.505 3 47 C3 32.48 3 17.96 3 3 C1.68 2.34 0.36 1.68 -1 1 C-0.67 0.67 -0.34 0.34 0 0 Z " fill="#FEE0E0" transform="translate(258,221)"/>
<path d="M0 0 C0.66 0.33 1.32 0.66 2 1 C2.02892385 5.12498538 2.04677267 9.24994485 2.0625 13.375 C2.07087891 14.550625 2.07925781 15.72625 2.08789062 16.9375 C2.09111328 18.05898437 2.09433594 19.18046875 2.09765625 20.3359375 C2.10289307 21.37282715 2.10812988 22.4097168 2.11352539 23.47802734 C2 26 2 26 1 28 C-1.31 28 -3.62 28 -6 28 C-5.505 26.515 -5.505 26.515 -5 25 C-3.68 25 -2.36 25 -1 25 C-0.67 16.75 -0.34 8.5 0 0 Z " fill="#B12020" transform="translate(301,233)"/>
<path d="M0 0 C1.134375 0.020625 2.26875 0.04125 3.4375 0.0625 C3.1075 0.7225 2.7775 1.3825 2.4375 2.0625 C1.4475 2.0625 0.4575 2.0625 -0.5625 2.0625 C-1.72675976 4.39101952 -1.71707992 5.82530184 -1.76782227 8.42041016 C-1.78776749 9.32119293 -1.80771271 10.22197571 -1.82826233 11.15005493 C-1.84497482 12.12405243 -1.86168732 13.09804993 -1.87890625 14.1015625 C-1.89968735 15.09755463 -1.92046844 16.09354675 -1.94187927 17.11972046 C-2.00739042 20.30890854 -2.06626704 23.49818058 -2.125 26.6875 C-2.16818373 28.84636293 -2.21179797 31.0052173 -2.25585938 33.1640625 C-2.36307336 38.4634523 -2.46483685 43.76292606 -2.5625 49.0625 C-2.8925 49.0625 -3.2225 49.0625 -3.5625 49.0625 C-3.73032542 42.2450293 -3.89028898 35.42740729 -4.04467773 28.60961914 C-4.09818563 26.28828716 -4.15352145 23.96699658 -4.21069336 21.64575195 C-4.29235982 18.31731093 -4.36754119 14.98877837 -4.44140625 11.66015625 C-4.46844131 10.61537613 -4.49547638 9.57059601 -4.52333069 8.49415588 C-4.54342697 7.53323532 -4.56352325 6.57231476 -4.58422852 5.58227539 C-4.60421402 4.73178116 -4.62419952 3.88128693 -4.64479065 3.00502014 C-4.49638866 -0.49809779 -3.61530786 0.06342645 0 0 Z " fill="#B00D0B" transform="translate(208.5625,219.9375)"/>
<path d="M0 0 C1.84288788 3.68577577 2.24701045 4.72122653 2.1953125 8.546875 C2.18886719 9.39121094 2.18242187 10.23554688 2.17578125 11.10546875 C2.15902344 11.97816406 2.14226562 12.85085937 2.125 13.75 C2.11597656 14.63816406 2.10695312 15.52632812 2.09765625 16.44140625 C2.07414577 18.62788058 2.04128499 20.81380094 2 23 C2.66 23.33 3.32 23.66 4 24 C4.33 16.08 4.66 8.16 5 0 C5.33 0 5.66 0 6 0 C6.05785647 3.95827235 6.09354717 7.9164367 6.125 11.875 C6.14175781 13.00292969 6.15851563 14.13085938 6.17578125 15.29296875 C6.18222656 16.36933594 6.18867188 17.44570312 6.1953125 18.5546875 C6.20578613 19.54968262 6.21625977 20.54467773 6.22705078 21.56982422 C6 24 6 24 4 26 C2.68 25.67 1.36 25.34 0 25 C0 16.75 0 8.5 0 0 Z " fill="#FED9D9" transform="translate(245,234)"/>
<path d="M0 0 C2 2 2 2 2.22705078 3.87939453 C2.21657715 4.62302246 2.20610352 5.36665039 2.1953125 6.1328125 C2.18886719 6.93847656 2.18242187 7.74414062 2.17578125 8.57421875 C2.15902344 9.41597656 2.14226562 10.25773438 2.125 11.125 C2.11597656 11.97449219 2.10695313 12.82398438 2.09765625 13.69921875 C2.07405647 15.79959884 2.03818483 17.89983444 2 20 C1.01 20 0.02 20 -1 20 C-1.02888514 16.85418577 -1.04675923 13.70840531 -1.0625 10.5625 C-1.07087891 9.66466797 -1.07925781 8.76683594 -1.08789062 7.84179688 C-1.09111328 6.98779297 -1.09433594 6.13378906 -1.09765625 5.25390625 C-1.10551147 4.06776733 -1.10551147 4.06776733 -1.11352539 2.85766602 C-1 1 -1 1 0 0 Z " fill="#FEFCFD" transform="translate(298,237)"/>
<path d="M0 0 C2.5 0.125 2.5 0.125 3.5 1.125 C3.54063832 2.79117115 3.542721 4.45888095 3.5 6.125 C3.17 4.805 2.84 3.485 2.5 2.125 C1.18 2.455 -0.14 2.785 -1.5 3.125 C-1.5 10.055 -1.5 16.985 -1.5 24.125 C-0.18 24.785 1.14 25.445 2.5 26.125 C0.625 26.75 0.625 26.75 -1.5 27.125 C-3.5 25.125 -3.5 25.125 -3.74291992 22.71069336 C-3.73881104 21.72206299 -3.73470215 20.73343262 -3.73046875 19.71484375 C-3.72853516 18.64298828 -3.72660156 17.57113281 -3.72460938 16.46679688 C-3.71236328 15.34337891 -3.70011719 14.21996094 -3.6875 13.0625 C-3.68685547 11.93521484 -3.68621094 10.80792969 -3.68554688 9.64648438 C-3.63426274 0.18171314 -3.63426274 0.18171314 0 0 Z " fill="#FEDAD7" transform="translate(272.5,232.875)"/>
<path d="M0 0 C3.36748512 1.51947499 4.60840337 2.52100842 6 6 C5.01 6.495 5.01 6.495 4 7 C3.67 6.34 3.34 5.68 3 5 C1.02 5 -0.96 5 -3 5 C-3.103125 5.598125 -3.20625 6.19625 -3.3125 6.8125 C-4.09824033 9.31258286 -4.96918853 10.37535082 -7 12 C-7.66 12 -8.32 12 -9 12 C-7.55575365 8.76138697 -5.74227753 6.38030837 -3.375 3.75 C-2.74335938 3.04359375 -2.11171875 2.3371875 -1.4609375 1.609375 C-0.97882813 1.07828125 -0.49671875 0.5471875 0 0 Z " fill="#FEEEEC" transform="translate(149,144)"/>
<path d="M0 0 C0.33 2.31 0.66 4.62 1 7 C-0.45381897 7.69699552 -1.91322953 8.38233866 -3.375 9.0625 C-4.18710937 9.44535156 -4.99921875 9.82820313 -5.8359375 10.22265625 C-6.55007813 10.47917969 -7.26421875 10.73570312 -8 11 C-8.66 10.67 -9.32 10.34 -10 10 C-4.25 7 -4.25 7 -2 7 C-2.33 5.68 -2.66 4.36 -3 3 C-4.98 3 -6.96 3 -9 3 C-4.5 0 -4.5 0 0 0 Z " fill="#FEEBE9" transform="translate(318,370)"/>
<path d="M0 0 C3.31529273 0.98562757 4.74949379 1.65447419 6.8125 4.5 C8 7 8 7 8 9 C8.66 9 9.32 9 10 9 C10 8.34 10 7.68 10 7 C10.66 7 11.32 7 12 7 C12.33 5.35 12.66 3.7 13 2 C15 4 15 4 15 7 C12.69 8.32 10.38 9.64 8 11 C6.66375099 9.35653302 5.33107149 7.71016314 4 6.0625 C3.2575 5.14597656 2.515 4.22945313 1.75 3.28515625 C0 1 0 1 0 0 Z " fill="#FFEFEB" transform="translate(322,360)"/>
<path d="M0 0 C1.98 0.495 1.98 0.495 4 1 C4 9.25 4 17.5 4 26 C2.02 26.99 2.02 26.99 0 28 C-0.33 27.34 -0.66 26.68 -1 26 C-0.01 25.67 0.98 25.34 2 25 C2.08681476 21.37515001 2.14032721 17.75056557 2.1875 14.125 C2.21263672 13.09246094 2.23777344 12.05992187 2.26367188 10.99609375 C2.27333984 10.00996094 2.28300781 9.02382812 2.29296875 8.0078125 C2.3086792 7.09660645 2.32438965 6.18540039 2.34057617 5.24658203 C2.22818604 4.50520996 2.1157959 3.76383789 2 3 C1.01 2.34 0.02 1.68 -1 1 C-0.67 0.67 -0.34 0.34 0 0 Z " fill="#FCDEDB" transform="translate(297,232)"/>
<path d="M0 0 C0.33 0.66 0.66 1.32 1 2 C-1.31 2.66 -3.62 3.32 -6 4 C-6.33 5.32 -6.66 6.64 -7 8 C-6.01 8.33 -5.02 8.66 -4 9 C-3.67 9.66 -3.34 10.32 -3 11 C-5.86724686 10.42655063 -6.8614515 10.1385485 -9 8 C-8.8125 5 -8.8125 5 -8 2 C-4.77208445 -0.1519437 -3.71599191 -0.20086443 0 0 Z " fill="#FEE4E1" transform="translate(376,235)"/>
<path d="M0 0 C0 3 0 3 -1.8125 5.1875 C-4 7 -4 7 -7 7 C-7 8.32 -7 9.64 -7 11 C-7.99 10.67 -8.98 10.34 -10 10 C-7.59983652 5.05848696 -4.47726973 2.95668756 0 0 Z " fill="#FFF1EF" transform="translate(322,338)"/>
<path d="M0 0 C0.33 0 0.66 0 1 0 C1 3.3 1 6.6 1 10 C-1.64 8.68 -4.28 7.36 -7 6 C-4.50907189 4.75453595 -3.58919267 5.2232422 -1 6 C-0.67 4.02 -0.34 2.04 0 0 Z " fill="#FFEAE8" transform="translate(190,369)"/>
<path d="M0 0 C0.33 0.99 0.66 1.98 1 3 C-0.14453125 4.75390625 -0.14453125 4.75390625 -1.8125 6.5625 C-2.35519531 7.16191406 -2.89789063 7.76132812 -3.45703125 8.37890625 C-4.62127433 9.60209834 -5.80591859 10.80591859 -7 12 C-6.4685789 7.48292068 -4.70984317 4.61312423 -2 1 C-1.34 0.67 -0.68 0.34 0 0 Z " fill="#FEEFED" transform="translate(348,313)"/>
<path d="M0 0 C0.6875 1.5625 0.6875 1.5625 1 4 C0.07175817 6.3627974 -0.93097061 8.69747517 -2 11 C-2.37308631 12.32276056 -2.73046415 13.65232077 -3 15 C-4.43968406 12.12063188 -4.302823 10.20992381 -4 7 C-2.85137305 4.49709673 -1.49143857 2.33037277 0 0 Z " fill="#FEECE7" transform="translate(335,155)"/>
<path d="M0 0 C4.75 0.875 4.75 0.875 7 2 C7.08131463 3.43655854 7.13933559 4.8744483 7.1875 6.3125 C7.22230469 7.11300781 7.25710937 7.91351563 7.29296875 8.73828125 C6.93801608 11.47851584 6.10633718 12.29171079 4 14 C4.226875 12.948125 4.45375 11.89625 4.6875 10.8125 C5.0358134 6.56307649 4.54689353 5.30152865 2 2 C1.34 1.34 0.68 0.68 0 0 Z " fill="#FEF0ED" transform="translate(181,132)"/>
<path d="M0 0 C0.66 0 1.32 0 2 0 C0.4169423 4.2742558 -2.50568404 6.26531794 -6 9 C-5.34 9.66 -4.68 10.32 -4 11 C-5.32 11 -6.64 11 -8 11 C-7.75 9.125 -7.75 9.125 -7 7 C-4.9375 5.75 -4.9375 5.75 -3 5 C-3 4.34 -3 3.68 -3 3 C-2.34 3 -1.68 3 -1 3 C-0.67 2.01 -0.34 1.02 0 0 Z " fill="#FFEEEF" transform="translate(271,116)"/>
<path d="M0 0 C2 3 2 3 4 6 C5.96361864 6.57748803 5.96361864 6.57748803 8.125 6.6875 C10.043125 6.8421875 10.043125 6.8421875 12 7 C8.5980513 9.09350689 5.94727588 9.17942163 2 9 C0.14223235 5.86501708 -0.20140476 3.62528568 0 0 Z " fill="#FEEDE9" transform="translate(252,384)"/>
<path d="M0 0 C1.11375 0.3403125 1.11375 0.3403125 2.25 0.6875 C2.58 1.6775 2.91 2.6675 3.25 3.6875 C2.59 4.3475 1.93 5.0075 1.25 5.6875 C1.25 4.3675 1.25 3.0475 1.25 1.6875 C-2.40316671 2.93726756 -3.53065836 3.35848753 -5.75 6.6875 C-6.08 5.3675 -6.41 4.0475 -6.75 2.6875 C-4.29511132 0.41445492 -3.41240272 -0.38777304 0 0 Z " fill="#FDECEB" transform="translate(126.75,308.3125)"/>
<path d="M0 0 C2.46800047 1.15173355 4.04783565 2.04783565 6 4 C5.01 4.33 4.02 4.66 3 5 C2.67 4.34 2.34 3.68 2 3 C-1.11332248 3.66868314 -1.11332248 3.66868314 -2.1875 6.0625 C-2.455625 6.701875 -2.72375 7.34125 -3 8 C-3.66 7.01 -4.32 6.02 -5 5 C-3.35 3.35 -1.7 1.7 0 0 Z " fill="#FEECE4" transform="translate(223,379)"/>
<path d="M0 0 C2 3 2 3 3 6 C0.36 7.65 -2.28 9.3 -5 11 C-5 9.68 -5 8.36 -5 7 C-3.68 6.67 -2.36 6.34 -1 6 C-0.67 4.02 -0.34 2.04 0 0 Z " fill="#FEEDE7" transform="translate(355,311)"/>
<path d="M0 0 C0 3 0 3 -2 5.1875 C-2.66 5.785625 -3.32 6.38375 -4 7 C-4.66 6.67 -5.32 6.34 -6 6 C-6 4.35 -6 2.7 -6 1 C-4.7934375 1.0309375 -4.7934375 1.0309375 -3.5625 1.0625 C-1.06645115 1.29633621 -1.06645115 1.29633621 0 0 Z " fill="#BD0E0E" transform="translate(250,258)"/>
<path d="M0 0 C0.99 0 1.98 0 3 0 C3 0.66 3 1.32 3 2 C4.32 2 5.64 2 7 2 C6.67 2.66 6.34 3.32 6 4 C4.0625 4.5625 4.0625 4.5625 2 5 C1.01 5.495 1.01 5.495 0 6 C-0.38218767 4.34385343 -0.71395102 2.67542976 -1 1 C-0.67 0.67 -0.34 0.34 0 0 Z " fill="#BE0C0D" transform="translate(231,218)"/>
<path d="M0 0 C0.66 0.33 1.32 0.66 2 1 C-0.10148204 4.98175544 -2.36905358 7.35039045 -6 10 C-4.79157144 5.56909529 -3.48331435 3.01887244 0 0 Z " fill="#FEEEEB" transform="translate(286,111)"/>
<path d="M0 0 C1.32 0.33 2.64 0.66 4 1 C3.34 1.61875 2.68 2.2375 2 2.875 C-0.2284549 4.75637427 -0.2284549 4.75637427 0 7 C-1.32 7.33 -2.64 7.66 -4 8 C-2.87548273 5.0280615 -1.77706209 2.66559313 0 0 Z " fill="#FEEDEA" transform="translate(181,339)"/>
<path d="M0 0 C0.33 0 0.66 0 1 0 C1.0810206 2.10353495 1.13919907 4.20795952 1.1875 6.3125 C1.22230469 7.48425781 1.25710938 8.65601563 1.29296875 9.86328125 C1 13 1 13 -0.51171875 14.91796875 C-1.00285156 15.27503906 -1.49398438 15.63210938 -2 16 C-2.66 15.67 -3.32 15.34 -4 15 C-3.34 14.01 -2.68 13.02 -2 12 C-1.34 12 -0.68 12 0 12 C0 8.04 0 4.08 0 0 Z " fill="#C0090B" transform="translate(314,241)"/>
<path d="M0 0 C0.33 0.99 0.66 1.98 1 3 C0.21625 3.763125 -0.5675 4.52625 -1.375 5.3125 C-4.07257717 7.90891805 -4.07257717 7.90891805 -6 11 C-6 6.63204596 -5.77237852 6.25341007 -3 3.25 C-2.443125 2.63640625 -1.88625 2.0228125 -1.3125 1.390625 C-0.6628125 0.70226562 -0.6628125 0.70226562 0 0 Z " fill="#FEEDEC" transform="translate(139,156)"/>
<path d="M0 0 C0.99 0.33 1.98 0.66 3 1 C2.525625 1.598125 2.05125 2.19625 1.5625 2.8125 C-0.16465744 5.00382924 -0.16465744 5.00382924 -1 8 C-3 5 -3 5 -2.75 2.875 C-2 1 -2 1 0 0 Z " fill="#FEEAE8" transform="translate(288,355)"/>
<path d="M0 0 C0.33 0 0.66 0 1 0 C1.49940808 6.11774896 0.24900602 9.02495953 -3 14 C-3.33 13.01 -3.66 12.02 -4 11 C-3.00664799 9.32936253 -2.00568242 7.66324401 -1 6 C-0.28598768 2.80604974 -0.28598768 2.80604974 0 0 Z " fill="#FEE6E4" transform="translate(372,325)"/>
<path d="M0 0 C0.99 1.32 1.98 2.64 3 4 C3.99 3.67 4.98 3.34 6 3 C5.67 4.32 5.34 5.64 5 7 C3.35 6.67 1.7 6.34 0 6 C0 4.02 0 2.04 0 0 Z " fill="#FEE8E6" transform="translate(232,264)"/>
<path d="M0 0 C0.33 0.66 0.66 1.32 1 2 C-0.65 3.98 -2.3 5.96 -4 8 C-4.33 6.68 -4.66 5.36 -5 4 C-3.35 2.68 -1.7 1.36 0 0 Z " fill="#FEF2EE" transform="translate(254,122)"/>
<path d="M0 0 C0.99 0.33 1.98 0.66 3 1 C2.67 4.3 2.34 7.6 2 11 C1.67 11 1.34 11 1 11 C0.92652344 10.04287109 0.92652344 10.04287109 0.8515625 9.06640625 C0.77679688 8.24011719 0.70203125 7.41382813 0.625 6.5625 C0.55539063 5.73878906 0.48578125 4.91507812 0.4140625 4.06640625 C0.27742187 3.38449219 0.14078125 2.70257813 0 2 C-0.66 1.67 -1.32 1.34 -2 1 C-1.34 0.67 -0.68 0.34 0 0 Z " fill="#FDF1EB" transform="translate(181,362)"/>
<path d="M0 0 C0.99 0.495 0.99 0.495 2 1 C2 1.99 2 2.98 2 4 C3.98 4 5.96 4 8 4 C6.68 4.99 5.36 5.98 4 7 C1 5 1 5 0.3125 2.375 C0.209375 1.59125 0.10625 0.8075 0 0 Z " fill="#FFE9E2" transform="translate(294,379)"/>
<path d="M0 0 C0.33 0.66 0.66 1.32 1 2 C-1.64 2.66 -4.28 3.32 -7 4 C-7 3.01 -7 2.02 -7 1 C-4.53721199 -0.231394 -2.7204945 -0.07159196 0 0 Z " fill="#FFEDE9" transform="translate(376,235)"/>
</svg>
